<svg id="Capa_1" data-name="Capa 1" xmlns="http://www.w3.org/2000/svg" viewBox="0 0 383.12 569.73"><defs><style>.cls-1,.cls-2{fill:none;stroke-linecap:round;stroke-linejoin:round;stroke-width:5.92px;}.cls-1{stroke:#1d1d1b;}.cls-2{stroke:#000;}.cls-3{fill:#1d1d1b;}</style></defs><path class="cls-1" d="M191.56,252.88H123.89s-19.57-1.95-19.57-24.08V150c0-12.48,13.53-12.15,22.51-14.16,3.18-.72,10.84-2.5,10.9-7.05.07-5.77-20.7-2.38-25.41-2.38-20.95,0-41.7-.77-50.31-23.39-4.13-10.87-3.78-23-1.62-34.39,2.52-13.33,7.52-26.35,15.8-37.09s20-19.08,33.27-22c-7.92,7.05-15.93,14.21-21.81,23S78.15,52.26,80,62.69l25.24-3.93a4.45,4.45,0,0,0,2.42-.88,4.75,4.75,0,0,0,1.12-2.7,57.44,57.44,0,0,1,28.39-39,84.73,84.73,0,0,0-11.44,39.25,58.15,58.15,0,0,1,28.05,5.84,175.42,175.42,0,0,0-24,2.35A7,7,0,0,0,126.09,65a6.78,6.78,0,0,0-1.6,3.48,86.33,86.33,0,0,0-2.07,26.57c.25,3.14.76,6.49,2.85,8.85a13.66,13.66,0,0,0,6.07,3.53c7,2.4,22.8,6.23,26.94-2.57a26.58,26.58,0,0,0,1.77-7A55.74,55.74,0,0,1,164.68,82c2.47-5,6.25-9.41,11.22-11.87-2,2.74-2.58,6.25-3,9.63q-1.22,9.33-1.83,18.75c-.18,2.75-.19,5.87,1.77,7.82a8.43,8.43,0,0,0,4.15,1.93l14.53-.14"/><path class="cls-1" d="M107.55,70.12c1,10.65,1.42,26.72-5.85,35.46C93,116.1,77,100,78.29,89.66a17.46,17.46,0,0,1,6.67-11C86.31,77.51,107.33,67.81,107.55,70.12Z"/><path class="cls-1" d="M191.76,218.36h-.19"/><path class="cls-1" d="M191.76,164h-.19"/><path class="cls-1" d="M191.75,329.3A249,249,0,0,1,168,312.42c-5.51-4.47-11.12-9.21-15.52-14.82-3.55-4.52-3.38-12.59-10.6-11.15-7.75,1.55-13,11.47-16.54,17.61-4.6,8-19.53,14.95-27.16,19.05a130.45,130.45,0,0,1-30.72,12c-11.25,2.77-20.85,5.08-28.09,14.77s-12.3,21.05-15.94,32.57c-8.94,28.2-9.3,58.88-7.23,88.12"/><path class="cls-1" d="M132.34,316l32.21,41.4s2.89,4.22,4.07,3.79l1.17-.43,20-32.47"/><path class="cls-1" d="M121.46,321.83s-27.62,21.27-53,22.57"/><path class="cls-1" d="M51.5,363.37s-12.3,4.41-11.1,35"/><line class="cls-1" x1="51.5" y1="434.89" x2="68.44" y2="475.66"/><path class="cls-1" d="M74.72,410.93S55,384.68,66.2,358.43"/><line class="cls-1" x1="191.76" y1="363.37" x2="191.11" y2="475.66"/><path class="cls-1" d="M191.64,108.09l14.52.14a8.43,8.43,0,0,0,4.15-1.93c2-2,1.95-5.07,1.77-7.82q-.6-9.41-1.83-18.75c-.44-3.38-1-6.89-3-9.63,5,2.46,8.74,6.91,11.21,11.87a55.74,55.74,0,0,1,4.63,15.89,26.58,26.58,0,0,0,1.77,7c4.15,8.8,19.89,5,26.94,2.57a13.69,13.69,0,0,0,6.08-3.53c2.09-2.36,2.6-5.71,2.84-8.85a86.64,86.64,0,0,0-2.06-26.57A6.79,6.79,0,0,0,257,65a7,7,0,0,0-3.72-1.43,175.11,175.11,0,0,0-24-2.35,58.16,58.16,0,0,1,28.06-5.84,84.86,84.86,0,0,0-11.45-39.25,57.44,57.44,0,0,1,28.39,39,4.75,4.75,0,0,0,1.12,2.7,4.45,4.45,0,0,0,2.42.88l25.24,3.93c1.86-10.43-1.76-21.25-7.64-30.07s-13.89-16-21.8-23c13.25,2.9,25,11.24,33.26,22s13.29,23.76,15.81,37.09c2.15,11.42,2.5,23.52-1.63,34.39-8.61,22.62-29.36,23.39-50.31,23.39-4.71,0-25.48-3.39-25.41,2.38.06,4.55,7.72,6.33,10.9,7.05,9,2,22.51,1.68,22.51,14.16V228.8c0,22.13-19.57,24.08-19.57,24.08H191.56"/><path class="cls-1" d="M275.57,70.12c-1,10.65-1.42,26.72,5.85,35.46,8.74,10.52,24.71-5.57,23.41-15.92-.55-4.38-3.24-8.28-6.66-11C296.82,77.51,275.8,67.81,275.57,70.12Z"/><circle class="cls-1" cx="191.56" cy="190.31" r="45.89"/><path class="cls-1" d="M218.56,191.15a27,27,0,1,1-27-27.19A27.19,27.19,0,0,1,218.56,191.15Z"/><path class="cls-1" d="M191.57,218.36h-.2"/><path class="cls-1" d="M191.57,164h-.2"/><path class="cls-1" d="M218.06,291.32c-2.54-.82-4.6-2.63-6.79-4.12-5.71-3.89-11.92-4.47-19.71-4.09-7.8-.38-14,.2-19.7,4.09-2.2,1.49-4.27,3.3-6.79,4.12-11.25,3.63-13-25.91-6.12-29.95a5.65,5.65,0,0,1,2.77-.68c4.17-.05,7.73,2.84,10.81,5.65,4.73,4.3,9.82,6.7,19,6.2,9.19.5,14.28-1.9,19-6.2,3.09-2.81,6.65-5.7,10.83-5.65a5.65,5.65,0,0,1,2.77.68C231,265.41,229.31,295,218.06,291.32Z"/><path class="cls-1" d="M191.37,329.3a249,249,0,0,0,23.76-16.88c5.51-4.47,11.12-9.21,15.52-14.82,3.55-4.52,3.39-12.59,10.6-11.15,7.76,1.55,13,11.47,16.54,17.61,4.61,8,19.54,14.95,27.16,19.05a130.62,130.62,0,0,0,30.72,12c11.26,2.77,20.86,5.08,28.1,14.77s12.29,21.05,15.94,32.57c8.93,28.2,9.29,58.88,7.23,88.12"/><path class="cls-1" d="M250.79,316l-32.22,41.4s-2.89,4.22-4.06,3.79l-1.18-.43-20-32.47"/><path class="cls-1" d="M261.66,321.83s27.62,21.27,53,22.57"/><path class="cls-1" d="M331.62,363.37s12.3,4.41,11.1,35"/><line class="cls-1" x1="331.62" y1="434.89" x2="314.68" y2="475.66"/><path class="cls-1" d="M308.4,410.93s19.74-26.25,8.53-52.5"/><line class="cls-1" x1="191.37" y1="363.37" x2="192.01" y2="475.66"/><path class="cls-2" d="M187.7,173.33c-8.84,0-15.79,12.26-13.39,19.83a.75.75,0,0,0,1.11.63,16.12,16.12,0,0,0,8.25-6.29"/><path class="cls-3" d="M63,498H71.1v20.95h8.68V498h8.08v51.46H79.78V526.28H71.1v23.16H63Z"/><path class="cls-3" d="M93.3,537.24V510.18c0-8.23,4.34-12.93,12.28-12.93s12.28,4.7,12.28,12.93v27.06c0,8.23-4.34,12.94-12.28,12.94S93.3,545.47,93.3,537.24Zm16.47.51V509.67c0-3.68-1.62-5.07-4.19-5.07s-4.19,1.39-4.19,5.07v28.08c0,3.68,1.62,5.08,4.19,5.08S109.77,541.43,109.77,537.75Z"/><path class="cls-3" d="M123.29,498h8.09v44.11h13.31v7.35h-21.4Z"/><path class="cls-3" d="M148.58,498h8.09v44.11H170v7.35h-21.4Z"/><path class="cls-3" d="M174.83,527.53,165.05,498h8.6l5.52,18.89h.14L184.83,498h7.86l-9.78,29.55v21.91h-8.08Z"/><path class="cls-3" d="M196.37,498h11.54l5.15,36.83h.14L218.35,498h11.54v51.46h-7.65v-39h-.14l-5.88,39h-6.77l-5.88-39h-.15v39h-7Z"/><path class="cls-3" d="M235.33,537.24V510.18c0-8.23,4.34-12.93,12.28-12.93s12.27,4.7,12.27,12.93v27.06c0,8.23-4.33,12.94-12.27,12.94S235.33,545.47,235.33,537.24Zm16.47.51V509.67c0-3.68-1.62-5.07-4.19-5.07s-4.19,1.39-4.19,5.07v28.08c0,3.68,1.61,5.08,4.19,5.08S251.8,541.43,251.8,537.75Z"/><path class="cls-3" d="M264.73,537.24V510.18c0-8.23,4.34-12.93,12.28-12.93s12.28,4.7,12.28,12.93v27.06c0,8.23-4.34,12.94-12.28,12.94S264.73,545.47,264.73,537.24Zm16.47.51V509.67c0-3.68-1.62-5.07-4.19-5.07s-4.19,1.39-4.19,5.07v28.08c0,3.68,1.62,5.08,4.19,5.08S281.2,541.43,281.2,537.75Z"/><path class="cls-3" d="M294.73,498h12.35c8.08,0,12.05,4.48,12.05,12.72v26c0,8.24-4,12.72-12.05,12.72H294.73Zm12.2,44.11c2.57,0,4.12-1.32,4.12-5V510.33c0-3.67-1.55-5-4.12-5h-4.12v36.76Z"/></svg>